<svg width="145" height="145" viewBox="0 0 145 145" fill="none" xmlns="http://www.w3.org/2000/svg">
<path d="M72.5 1.44995C33.263 1.44995 1.44995 33.263 1.44995 72.5C1.44995 111.737 33.263 143.55 72.5 143.55C111.737 143.55 143.55 111.737 143.55 72.5C143.55 33.263 111.737 1.44995 72.5 1.44995ZM73.5585 125.787C44.109 125.787 20.271 101.949 20.271 72.5C20.271 43.0505 44.109 19.2125 73.5585 19.2125C87.928 19.2125 99.9775 24.4615 109.243 33.147L94.7865 47.0815C90.8135 43.2825 83.9115 38.86 73.5585 38.86C55.3465 38.86 40.5275 53.9255 40.5275 72.5C40.5275 91.0745 55.3755 106.14 73.5585 106.14C94.656 106.14 102.558 90.9875 103.776 83.1575H73.5585V64.902H123.873C124.323 67.57 124.7 70.238 124.7 73.7325C124.729 104.168 104.327 125.787 73.5585 125.787Z" fill="#fff"/>
</svg>
